<?xml version="1.0" encoding="utf-8"?>
<!-- Generator: Adobe Illustrator 17.0.0, SVG Export Plug-In . SVG Version: 6.00 Build 0)  -->
<!DOCTYPE svg PUBLIC "-//W3C//DTD SVG 1.1//EN" "http://www.w3.org/Graphics/SVG/1.1/DTD/svg11.dtd">
<svg version="1.1" id="Layer_1" xmlns="http://www.w3.org/2000/svg" xmlns:xlink="http://www.w3.org/1999/xlink" x="0px" y="0px"
	 width="227.5px" height="284px" viewBox="0 0 227.5 284" enable-background="new 0 0 227.5 284" xml:space="preserve">
<g>
	<g>
		<g enable-background="new    ">
			<g enable-background="new    ">
				<defs>
					<path id="SVGID_1_" enable-background="new    " d="M120.732,232.447c-7.969,0.736-16.345,0.17-24.894-1.68
						c-3.273-0.708-7.634-1.998-10.605-3.137c-5.363-2.055-6.817-2.827-11.634-5.384c-0.201-0.107-4.989-2.665-10.562-7.052
						c-3.563-2.805-3.563-2.805-9.47-8.716c-3.018-3.02-8.634-10.384-11.524-15.811c-3.495-6.562-6.577-12.917-8.9-24.256
						c-0.646-3.151-1.217-7.422-1.357-10.635c-0.295-6.773-0.194-7.975,0.292-13.75c0.588-6.975,3.083-16.113,4.595-19.78
						c3.127-7.579,3.314-8.033,5.58-12.03c3.504-6.179,7.1-10.557,7.499-11.035c1.898-2.28,5.074-6.096,9.497-9.962
						c1.339-1.17,3.14-2.718,4.571-3.773c2.195-1.617,5.198-3.673,7.506-5.125c1.354-0.851,3.213-1.905,4.649-2.609
						c2.457-1.204,5.781-2.715,8.315-3.746c3.965-1.613,8.808-2.826,10.876-3.344c2.826-0.708,13.034-2.93,25.715-1.818
						c6.512,0.571,10.912,1.671,13.823,2.398c1.194,0.298,2.775,0.745,3.939,1.145c2.226,0.765,5.168,1.862,7.355,2.734
						c-9.279-3.965-19.669-5.736-30.677-4.803c11.008-0.933,21.399,0.839,30.677,4.803c3.344,1.479,12.227,5.406,21.306,13.271
						c1.754,1.52,5.019,4.348,9.089,9.14c3.339,3.932,4.237,5.32,7.578,10.485c0.031,0.047,3.14,4.924,5.868,11.621
						c1.764,4.331,1.764,4.331,3.982,12.564c0.534,1.983,1.042,4.688,1.253,6.731c0.41,3.98,0.885,9.312,0.814,13.312
						c-0.386,21.725-9.33,37.65-14.628,45.21c-7.123,10.163-14.009,15.596-17.617,18.432c-2.079,1.634-9.692,7.286-20.348,11.405
						C136.179,230.004,128.798,231.703,120.732,232.447z"/>
				</defs>
				<clipPath id="SVGID_2_">
					<use xlink:href="#SVGID_1_"  overflow="visible"/>
				</clipPath>
				<g clip-path="url(#SVGID_2_)" enable-background="new    ">
					<g>
						<path fill="none" stroke="#A0A0A0" stroke-width="0.25" stroke-miterlimit="10" d="M112.213,230.959
							c40.515-3.433,74.056-42.193,74.914-86.543c20.362,8.701,4.024,18.537-36.492,21.97
							C149.777,210.736,132.574,239.66,112.213,230.959z"/>
						<path fill="none" stroke="#A0A0A0" stroke-width="0.25" stroke-miterlimit="10" d="M149.451,216.852
							c10.277,4.391,2.031,9.356-18.418,11.088"/>
						<path fill="none" stroke="#A0A0A0" stroke-width="0.25" stroke-miterlimit="10" d="M176.327,185.802
							c17.582,7.513,3.475,16.006-31.51,18.97"/>
						<path fill="none" stroke="#A0A0A0" stroke-width="0.25" stroke-miterlimit="10" d="M112.213,230.959
							c45.26,1.427,82.649-33.393,83.506-77.743"/>
						<path fill="none" stroke="#A0A0A0" stroke-width="0.25" stroke-miterlimit="10" d="M112.213,230.959
							c38.03,5.78,69.557-25.511,70.415-69.861"/>
					</g>
					<g>
						<path fill="none" stroke="#A0A0A0" stroke-width="0.25" stroke-miterlimit="10" d="M112.213,230.959
							c20.361,8.7,37.564-20.223,38.422-64.573c-40.516,3.433-89.868-0.838-110.23-9.538
							C39.547,201.198,71.698,234.392,112.213,230.959z"/>
						<path fill="none" stroke="#A0A0A0" stroke-width="0.25" stroke-miterlimit="10" d="M131.033,227.941
							c-20.449,1.733-45.357-0.423-55.634-4.814"/>
						<path fill="none" stroke="#A0A0A0" stroke-width="0.25" stroke-miterlimit="10" d="M144.817,204.772
							c-34.984,2.964-77.598-0.723-95.18-8.236"/>
						<path fill="none" stroke="#A0A0A0" stroke-width="0.25" stroke-miterlimit="10" d="M112.213,230.959
							c-2.867,9.245-4.496-19.237-3.638-63.587"/>
						<path fill="none" stroke="#A0A0A0" stroke-width="0.25" stroke-miterlimit="10" d="M112.213,230.959
							c-24.707,7.355-44.041-22.659-43.183-67.009"/>
					</g>
					<g>
						<path fill="none" stroke="#A0A0A0" stroke-width="0.25" stroke-miterlimit="10" d="M112.213,230.959
							c-40.515,3.433-72.665-29.761-71.808-74.112c-20.362-8.701-4.024-18.537,36.492-21.97
							C76.039,179.229,91.851,222.259,112.213,230.959z"/>
						<path fill="none" stroke="#A0A0A0" stroke-width="0.25" stroke-miterlimit="10" d="M75.399,223.127
							c-10.277-4.391-2.031-9.356,18.418-11.088"/>
						<path fill="none" stroke="#A0A0A0" stroke-width="0.25" stroke-miterlimit="10" d="M49.637,196.536
							c-17.582-7.513-3.475-16.006,31.51-18.97"/>
						<path fill="none" stroke="#A0A0A0" stroke-width="0.25" stroke-miterlimit="10" d="M112.213,230.959
							c-45.26-1.427-81.258-38.561-80.4-82.912"/>
						<path fill="none" stroke="#A0A0A0" stroke-width="0.25" stroke-miterlimit="10" d="M112.213,230.959
							c-38.03-5.78-68.166-46.443-67.309-90.793"/>
					</g>
					<g>
						<path fill="none" stroke="#A0A0A0" stroke-width="0.25" stroke-miterlimit="10" d="M112.213,230.959
							c-20.361-8.7-36.173-51.731-35.316-96.081c40.516-3.433,89.868,0.838,110.23,9.538
							C186.269,188.767,152.727,227.527,112.213,230.959z"/>
						<path fill="none" stroke="#A0A0A0" stroke-width="0.25" stroke-miterlimit="10" d="M93.817,212.038
							c20.449-1.733,45.357,0.423,55.634,4.814"/>
						<path fill="none" stroke="#A0A0A0" stroke-width="0.25" stroke-miterlimit="10" d="M81.147,177.566
							c34.984-2.964,77.598,0.723,95.18,8.236"/>
						<path fill="none" stroke="#A0A0A0" stroke-width="0.25" stroke-miterlimit="10" d="M112.213,230.959
							c2.867-9.245,5.887-52.717,6.745-97.067"/>
						<path fill="none" stroke="#A0A0A0" stroke-width="0.25" stroke-miterlimit="10" d="M112.213,230.959
							c24.707-7.355,45.432-49.295,46.29-93.646"/>
					</g>
					<g>
						<path fill="none" stroke="#A0A0A0" stroke-width="0.25" stroke-miterlimit="10" d="M187.127,144.417
							c0.858-44.377-31.292-77.571-71.807-74.138c20.361,8.7,36.173,51.731,35.315,96.108
							C191.151,162.953,207.489,153.117,187.127,144.417z"/>
						<path fill="none" stroke="#A0A0A0" stroke-width="0.25" stroke-miterlimit="10" d="M177.895,104.71
							c17.582,7.513,3.475,16.006-31.51,18.97"/>
						<path fill="none" stroke="#A0A0A0" stroke-width="0.25" stroke-miterlimit="10" d="M152.133,78.112
							c10.277,4.391,2.031,9.356-18.418,11.088"/>
						<path fill="none" stroke="#A0A0A0" stroke-width="0.25" stroke-miterlimit="10" d="M195.719,153.216
							c0.858-44.377-35.139-81.511-80.4-82.938"/>
						<path fill="none" stroke="#A0A0A0" stroke-width="0.25" stroke-miterlimit="10" d="M182.627,161.098
							c0.858-44.377-29.278-85.04-67.308-90.82"/>
					</g>
					<g>
						<path fill="none" stroke="#A0A0A0" stroke-width="0.25" stroke-miterlimit="10" d="M150.634,166.386
							c0.858-44.377-14.954-87.407-35.315-96.108c-40.515,3.433-74.056,42.193-74.915,86.569
							C60.767,165.548,110.118,169.819,150.634,166.386z"/>
						<path fill="none" stroke="#A0A0A0" stroke-width="0.25" stroke-miterlimit="10" d="M146.385,123.68
							c-34.984,2.964-77.598-0.723-95.18-8.236"/>
						<path fill="none" stroke="#A0A0A0" stroke-width="0.25" stroke-miterlimit="10" d="M133.715,89.201
							c-20.449,1.733-45.357-0.423-55.634-4.814"/>
						<path fill="none" stroke="#A0A0A0" stroke-width="0.25" stroke-miterlimit="10" d="M108.574,167.372
							c0.858-44.377,3.878-87.849,6.745-97.094"/>
						<path fill="none" stroke="#A0A0A0" stroke-width="0.25" stroke-miterlimit="10" d="M69.029,163.951
							c0.858-44.377,21.584-86.317,46.29-93.672"/>
					</g>
					<g>
						<path fill="none" stroke="#A0A0A0" stroke-width="0.25" stroke-miterlimit="10" d="M40.405,156.848
							c0.858-44.377,34.4-83.137,74.915-86.569c-20.361-8.7-37.564,20.223-38.422,64.6
							C36.381,138.311,20.043,148.147,40.405,156.848z"/>
						<path fill="none" stroke="#A0A0A0" stroke-width="0.25" stroke-miterlimit="10" d="M51.205,115.444
							c-17.582-7.513-3.475-16.006,31.51-18.97"/>
						<path fill="none" stroke="#A0A0A0" stroke-width="0.25" stroke-miterlimit="10" d="M78.081,84.387
							c-10.277-4.391-2.031-9.356,18.418-11.088"/>
						<path fill="none" stroke="#A0A0A0" stroke-width="0.25" stroke-miterlimit="10" d="M31.812,148.048
							c0.858-44.377,38.247-79.197,83.507-77.769"/>
						<path fill="none" stroke="#A0A0A0" stroke-width="0.25" stroke-miterlimit="10" d="M44.904,140.166
							c0.858-44.377,32.385-75.668,70.415-69.888"/>
					</g>
					<g>
						<path fill="none" stroke="#A0A0A0" stroke-width="0.25" stroke-miterlimit="10" d="M76.897,134.878
							c0.858-44.377,18.061-73.3,38.422-64.6c40.515-3.433,72.665,29.761,71.807,74.138
							C166.764,135.716,117.413,131.446,76.897,134.878z"/>
						<path fill="none" stroke="#A0A0A0" stroke-width="0.25" stroke-miterlimit="10" d="M82.715,96.474
							c34.984-2.964,77.598,0.723,95.18,8.236"/>
						<path fill="none" stroke="#A0A0A0" stroke-width="0.25" stroke-miterlimit="10" d="M96.499,73.298
							c20.449-1.733,45.357,0.423,55.634,4.814"/>
						<path fill="none" stroke="#A0A0A0" stroke-width="0.25" stroke-miterlimit="10" d="M118.957,133.892
							c0.858-44.377-0.771-72.859-3.638-63.614"/>
						<path fill="none" stroke="#A0A0A0" stroke-width="0.25" stroke-miterlimit="10" d="M158.502,137.314
							c0.858-44.377-18.476-74.391-43.183-67.035"/>
					</g>
				</g>
				<path clip-path="url(#SVGID_2_)" fill="none" stroke="#A0A0A0" stroke-width="0.25" stroke-miterlimit="10" d="M120.732,232.447
					c-7.969,0.736-16.345,0.17-24.894-1.68c-3.273-0.708-7.634-1.998-10.605-3.137c-5.363-2.055-6.817-2.827-11.634-5.384
					c-0.201-0.107-4.989-2.665-10.562-7.052c-3.563-2.805-3.563-2.805-9.47-8.716c-3.018-3.02-8.634-10.384-11.524-15.811
					c-3.495-6.562-6.577-12.917-8.9-24.256c-0.646-3.151-1.217-7.422-1.357-10.635c-0.295-6.773-0.194-7.975,0.292-13.75
					c0.588-6.975,3.083-16.113,4.595-19.78c3.127-7.579,3.314-8.033,5.58-12.03c3.504-6.179,7.1-10.557,7.499-11.035
					c1.898-2.28,5.074-6.096,9.497-9.962c1.339-1.17,3.14-2.718,4.571-3.773c2.195-1.617,5.198-3.673,7.506-5.125
					c1.354-0.851,3.213-1.905,4.649-2.609c2.457-1.204,5.781-2.715,8.315-3.746c3.965-1.613,8.808-2.826,10.876-3.344
					c2.826-0.708,13.034-2.93,25.715-1.818c6.512,0.571,10.912,1.671,13.823,2.398c1.194,0.298,2.775,0.745,3.939,1.145
					c2.226,0.765,5.168,1.862,7.355,2.734c-9.279-3.965-19.669-5.736-30.677-4.803c11.008-0.933,21.399,0.839,30.677,4.803
					c3.344,1.479,12.227,5.406,21.306,13.271c1.754,1.52,5.019,4.348,9.089,9.14c3.339,3.932,4.237,5.32,7.578,10.485
					c0.031,0.047,3.14,4.924,5.868,11.621c1.764,4.331,1.764,4.331,3.982,12.564c0.534,1.983,1.042,4.688,1.253,6.731
					c0.41,3.98,0.885,9.312,0.814,13.312c-0.386,21.725-9.33,37.65-14.628,45.21c-7.123,10.163-14.009,15.596-17.617,18.432
					c-2.079,1.634-9.692,7.286-20.348,11.405C136.179,230.004,128.798,231.703,120.732,232.447z"/>
				<use xlink:href="#SVGID_1_"  overflow="visible" fill="none" stroke="#A0A0A0" stroke-miterlimit="10"/>
			</g>
			<g enable-background="new    ">
				<defs>
					<path id="SVGID_3_" enable-background="new    " d="M195.887,152.207c-0.09,2.337-0.171,5.465-0.515,7.777
						c-0.873,5.859-1.4,9.395-2.608,13.182c-1.85,5.8-2.473,7.753-4.631,12.351c-2.7,5.752-5.65,10.137-6.49,11.345
						c-5.162,7.417-10.121,12.719-17.117,18.301c-8.493,6.777-17.324,10.575-20.727,11.894c-19.482,7.55-36.781,6.197-47.862,3.733
						c-16.001-3.558-30.441-11.74-41.76-23.663c-2.126-2.239-4.993-5.434-8.321-10.306c-2.536-3.712-2.536-3.712-6.511-11.408
						c-2.549-4.933-5.376-14.1-6.201-19.001c-0.658-3.908-1.292-9.168-1.473-13.127c-0.15-3.28-0.005-7.678,0.376-10.94
						c0.822-7.04,2.013-14.581,6.903-25.638c0.923-2.088,2.971-6.343,6.311-11.387c2.535-3.829,2.535-3.829,7.973-10.184
						c2.985-3.489,10.005-9.717,15.381-13.101c3.87-2.437,6.206-3.908,12.101-6.595c2.07-0.944,5.655-2.391,10.979-3.927
						c2.36-0.681,8.714-2.321,16.729-2.844c2.305-0.15,4.945-0.208,7.063-0.155c10.74,0.27,20.435,2.357,30.512,6.568
						c24.871,10.627,41.755,37.015,41.13,69.335c-0.858,44.35-34.399,83.11-74.914,86.543c40.515-3.433,74.056-42.193,74.914-86.543
						c0.625-32.319-16.258-58.707-41.13-69.335c2.842,1.323,6.652,3.075,9.326,4.71c2.77,1.694,6.956,4.253,10.933,7.676
						c3.296,2.838,5.678,4.888,9.635,9.442c3.651,4.201,5.217,6.623,7.813,10.635c0.13,0.201,3.223,5.011,5.987,11.696
						c1.818,4.397,1.818,4.397,4.055,12.598C195.135,136.936,196.116,146.263,195.887,152.207z"/>
				</defs>
				<clipPath id="SVGID_4_">
					<use xlink:href="#SVGID_3_"  overflow="visible"/>
				</clipPath>
				<g clip-path="url(#SVGID_4_)" enable-background="new    ">
					<g>
						<path fill="none" stroke="#A0A0A0" stroke-width="0.25" stroke-miterlimit="10" d="M112.213,230.959
							c40.515-3.433,74.056-42.193,74.914-86.543c20.362,8.701,4.024,18.537-36.492,21.97
							C149.777,210.736,132.574,239.66,112.213,230.959z"/>
						<path fill="none" stroke="#A0A0A0" stroke-width="0.25" stroke-miterlimit="10" d="M149.451,216.852
							c10.277,4.391,2.031,9.356-18.418,11.088"/>
						<path fill="none" stroke="#A0A0A0" stroke-width="0.25" stroke-miterlimit="10" d="M176.327,185.802
							c17.582,7.513,3.475,16.006-31.51,18.97"/>
						<path fill="none" stroke="#A0A0A0" stroke-width="0.25" stroke-miterlimit="10" d="M112.213,230.959
							c45.26,1.427,82.649-33.393,83.506-77.743"/>
						<path fill="none" stroke="#A0A0A0" stroke-width="0.25" stroke-miterlimit="10" d="M112.213,230.959
							c38.03,5.78,69.557-25.511,70.415-69.861"/>
					</g>
					<g>
						<path fill="none" stroke="#A0A0A0" stroke-width="0.25" stroke-miterlimit="10" d="M112.213,230.959
							c20.361,8.7,37.564-20.223,38.422-64.573c-40.516,3.433-89.868-0.838-110.23-9.538
							C39.547,201.198,71.698,234.392,112.213,230.959z"/>
						<path fill="none" stroke="#A0A0A0" stroke-width="0.25" stroke-miterlimit="10" d="M131.033,227.941
							c-20.449,1.733-45.357-0.423-55.634-4.814"/>
						<path fill="none" stroke="#A0A0A0" stroke-width="0.25" stroke-miterlimit="10" d="M144.817,204.772
							c-34.984,2.964-77.598-0.723-95.18-8.236"/>
						<path fill="none" stroke="#A0A0A0" stroke-width="0.25" stroke-miterlimit="10" d="M112.213,230.959
							c-2.867,9.245-4.496-19.237-3.638-63.587"/>
						<path fill="none" stroke="#A0A0A0" stroke-width="0.25" stroke-miterlimit="10" d="M112.213,230.959
							c-24.707,7.355-44.041-22.659-43.183-67.009"/>
					</g>
					<g>
						<path fill="none" stroke="#A0A0A0" stroke-width="0.25" stroke-miterlimit="10" d="M112.213,230.959
							c-40.515,3.433-72.665-29.761-71.808-74.112c-20.362-8.701-4.024-18.537,36.492-21.97
							C76.039,179.229,91.851,222.259,112.213,230.959z"/>
						<path fill="none" stroke="#A0A0A0" stroke-width="0.25" stroke-miterlimit="10" d="M75.399,223.127
							c-10.277-4.391-2.031-9.356,18.418-11.088"/>
						<path fill="none" stroke="#A0A0A0" stroke-width="0.25" stroke-miterlimit="10" d="M49.637,196.536
							c-17.582-7.513-3.475-16.006,31.51-18.97"/>
						<path fill="none" stroke="#A0A0A0" stroke-width="0.25" stroke-miterlimit="10" d="M112.213,230.959
							c-45.26-1.427-81.258-38.561-80.4-82.912"/>
						<path fill="none" stroke="#A0A0A0" stroke-width="0.25" stroke-miterlimit="10" d="M112.213,230.959
							c-38.03-5.78-68.166-46.443-67.309-90.793"/>
					</g>
					<g>
						<path fill="none" stroke="#A0A0A0" stroke-width="0.25" stroke-miterlimit="10" d="M112.213,230.959
							c-20.361-8.7-36.173-51.731-35.316-96.081c40.516-3.433,89.868,0.838,110.23,9.538
							C186.269,188.767,152.727,227.527,112.213,230.959z"/>
						<path fill="none" stroke="#A0A0A0" stroke-width="0.25" stroke-miterlimit="10" d="M93.817,212.038
							c20.449-1.733,45.357,0.423,55.634,4.814"/>
						<path fill="none" stroke="#A0A0A0" stroke-width="0.25" stroke-miterlimit="10" d="M81.147,177.566
							c34.984-2.964,77.598,0.723,95.18,8.236"/>
						<path fill="none" stroke="#A0A0A0" stroke-width="0.25" stroke-miterlimit="10" d="M112.213,230.959
							c2.867-9.245,5.887-52.717,6.745-97.067"/>
						<path fill="none" stroke="#A0A0A0" stroke-width="0.25" stroke-miterlimit="10" d="M112.213,230.959
							c24.707-7.355,45.432-49.295,46.29-93.646"/>
					</g>
					<g>
						<path fill="none" stroke="#A0A0A0" stroke-width="0.25" stroke-miterlimit="10" d="M187.127,144.417
							c0.858-44.377-31.292-77.571-71.807-74.138c20.361,8.7,36.173,51.731,35.315,96.108
							C191.151,162.953,207.489,153.117,187.127,144.417z"/>
						<path fill="none" stroke="#A0A0A0" stroke-width="0.25" stroke-miterlimit="10" d="M177.895,104.71
							c17.582,7.513,3.475,16.006-31.51,18.97"/>
						<path fill="none" stroke="#A0A0A0" stroke-width="0.25" stroke-miterlimit="10" d="M152.133,78.112
							c10.277,4.391,2.031,9.356-18.418,11.088"/>
						<path fill="none" stroke="#A0A0A0" stroke-width="0.25" stroke-miterlimit="10" d="M195.719,153.216
							c0.858-44.377-35.139-81.511-80.4-82.938"/>
						<path fill="none" stroke="#A0A0A0" stroke-width="0.25" stroke-miterlimit="10" d="M182.627,161.098
							c0.858-44.377-29.278-85.04-67.308-90.82"/>
					</g>
					<g>
						<path fill="none" stroke="#A0A0A0" stroke-width="0.25" stroke-miterlimit="10" d="M150.634,166.386
							c0.858-44.377-14.954-87.407-35.315-96.108c-40.515,3.433-74.056,42.193-74.915,86.569
							C60.767,165.548,110.118,169.819,150.634,166.386z"/>
						<path fill="none" stroke="#A0A0A0" stroke-width="0.25" stroke-miterlimit="10" d="M146.385,123.68
							c-34.984,2.964-77.598-0.723-95.18-8.236"/>
						<path fill="none" stroke="#A0A0A0" stroke-width="0.25" stroke-miterlimit="10" d="M133.715,89.201
							c-20.449,1.733-45.357-0.423-55.634-4.814"/>
						<path fill="none" stroke="#A0A0A0" stroke-width="0.25" stroke-miterlimit="10" d="M108.574,167.372
							c0.858-44.377,3.878-87.849,6.745-97.094"/>
						<path fill="none" stroke="#A0A0A0" stroke-width="0.25" stroke-miterlimit="10" d="M69.029,163.951
							c0.858-44.377,21.584-86.317,46.29-93.672"/>
					</g>
					<g>
						<path fill="none" stroke="#A0A0A0" stroke-width="0.25" stroke-miterlimit="10" d="M40.405,156.848
							c0.858-44.377,34.4-83.137,74.915-86.569c-20.361-8.7-37.564,20.223-38.422,64.6
							C36.381,138.311,20.043,148.147,40.405,156.848z"/>
						<path fill="none" stroke="#A0A0A0" stroke-width="0.25" stroke-miterlimit="10" d="M51.205,115.444
							c-17.582-7.513-3.475-16.006,31.51-18.97"/>
						<path fill="none" stroke="#A0A0A0" stroke-width="0.25" stroke-miterlimit="10" d="M78.081,84.387
							c-10.277-4.391-2.031-9.356,18.418-11.088"/>
						<path fill="none" stroke="#A0A0A0" stroke-width="0.25" stroke-miterlimit="10" d="M31.812,148.048
							c0.858-44.377,38.247-79.197,83.507-77.769"/>
						<path fill="none" stroke="#A0A0A0" stroke-width="0.25" stroke-miterlimit="10" d="M44.904,140.166
							c0.858-44.377,32.385-75.668,70.415-69.888"/>
					</g>
					<g>
						<path fill="none" stroke="#A0A0A0" stroke-width="0.25" stroke-miterlimit="10" d="M76.897,134.878
							c0.858-44.377,18.061-73.3,38.422-64.6c40.515-3.433,72.665,29.761,71.807,74.138
							C166.764,135.716,117.413,131.446,76.897,134.878z"/>
						<path fill="none" stroke="#A0A0A0" stroke-width="0.25" stroke-miterlimit="10" d="M82.715,96.474
							c34.984-2.964,77.598,0.723,95.18,8.236"/>
						<path fill="none" stroke="#A0A0A0" stroke-width="0.25" stroke-miterlimit="10" d="M96.499,73.298
							c20.449-1.733,45.357,0.423,55.634,4.814"/>
						<path fill="none" stroke="#A0A0A0" stroke-width="0.25" stroke-miterlimit="10" d="M118.957,133.892
							c0.858-44.377-0.771-72.859-3.638-63.614"/>
						<path fill="none" stroke="#A0A0A0" stroke-width="0.25" stroke-miterlimit="10" d="M158.502,137.314
							c0.858-44.377-18.476-74.391-43.183-67.035"/>
					</g>
				</g>
				<path clip-path="url(#SVGID_4_)" fill="none" stroke="#A0A0A0" stroke-width="0.25" stroke-miterlimit="10" d="M195.887,152.207
					c-0.09,2.337-0.171,5.465-0.515,7.777c-0.873,5.859-1.4,9.395-2.608,13.182c-1.85,5.8-2.473,7.753-4.631,12.351
					c-2.7,5.752-5.65,10.137-6.49,11.345c-5.162,7.417-10.121,12.719-17.117,18.301c-8.493,6.777-17.324,10.575-20.727,11.894
					c-19.482,7.55-36.781,6.197-47.862,3.733c-16.001-3.558-30.441-11.74-41.76-23.663c-2.126-2.239-4.993-5.434-8.321-10.306
					c-2.536-3.712-2.536-3.712-6.511-11.408c-2.549-4.933-5.376-14.1-6.201-19.001c-0.658-3.908-1.292-9.168-1.473-13.127
					c-0.15-3.28-0.005-7.678,0.376-10.94c0.822-7.04,2.013-14.581,6.903-25.638c0.923-2.088,2.971-6.343,6.311-11.387
					c2.535-3.829,2.535-3.829,7.973-10.184c2.985-3.489,10.005-9.717,15.381-13.101c3.87-2.437,6.206-3.908,12.101-6.595
					c2.07-0.944,5.655-2.391,10.979-3.927c2.36-0.681,8.714-2.321,16.729-2.844c2.305-0.15,4.945-0.208,7.063-0.155
					c10.74,0.27,20.435,2.357,30.512,6.568c24.871,10.627,41.755,37.015,41.13,69.335c-0.858,44.35-34.399,83.11-74.914,86.543
					c40.515-3.433,74.056-42.193,74.914-86.543c0.625-32.319-16.258-58.707-41.13-69.335c2.842,1.323,6.652,3.075,9.326,4.71
					c2.77,1.694,6.956,4.253,10.933,7.676c3.296,2.838,5.678,4.888,9.635,9.442c3.651,4.201,5.217,6.623,7.813,10.635
					c0.13,0.201,3.223,5.011,5.987,11.696c1.818,4.397,1.818,4.397,4.055,12.598C195.135,136.936,196.116,146.263,195.887,152.207z"
					/>
				<use xlink:href="#SVGID_3_"  overflow="visible" fill="none" stroke="#A0A0A0" stroke-miterlimit="10"/>
			</g>
		</g>
	</g>
	<path fill="#FFFFFF" stroke="#000000" stroke-miterlimit="10" d="M183,203.5c0,6.627-5.373,12-12,12H56c-6.627,0-12-5.373-12-12
		v-14c0-6.627,5.373-12,12-12h115c6.627,0,12,5.373,12,12V203.5z"/>
	<text transform="matrix(1 0 0 1 55.8705 200.5293)" font-family="'MyriadPro-Semibold'" font-size="16">LogisticClassifier</text>
	<path fill="#FFFFFF" stroke="#000000" stroke-miterlimit="10" d="M183,112.5c0,6.627-5.373,12-12,12H56c-6.627,0-12-5.373-12-12
		v-14c0-6.627,5.373-12,12-12h115c6.627,0,12,5.373,12,12V112.5z"/>
	<text transform="matrix(1 0 0 1 57.9506 109.5293)" font-family="'MyriadPro-Semibold'" font-size="16">Extract Features</text>
	<text transform="matrix(1 0 0 1 62.7673 32.8628)"><tspan x="0" y="0" fill="#2F91EA" font-family="'MyriadPro-Semibold'" font-size="16">I gotta tell yall,</tspan><tspan x="-29.352" y="19.2" fill="#2F91EA" font-family="'MyriadPro-Semibold'" font-size="16">the new iPhone 7 sucks</tspan></text>
	<g>
		<g>
			<line fill="none" stroke="#000000" stroke-width="2" stroke-miterlimit="10" x1="113.5" y1="85" x2="113.5" y2="60"/>
			<g>
				<polygon points="117.5,80.73 114,84.123 110.5,80.73 110.5,83.609 114,87 117.5,83.609 				"/>
			</g>
		</g>
	</g>
	<g>
		<g>
			<line fill="none" stroke="#000000" stroke-width="2" stroke-miterlimit="10" x1="113.5" y1="240" x2="113.5" y2="215"/>
			<g>
				<polygon points="117.5,235.73 114,239.123 110.5,235.73 110.5,238.609 114,242 117.5,238.609 				"/>
			</g>
		</g>
	</g>
	<g>
		<g>
			<line fill="none" stroke="#000000" stroke-width="2" stroke-miterlimit="10" x1="113.5" y1="175" x2="113.5" y2="124"/>
			<g>
				<polygon points="117.5,171.23 114,174.623 110.5,171.23 110.5,174.109 114,177.5 117.5,174.109 				"/>
			</g>
		</g>
	</g>
	<text transform="matrix(1 0 0 1 83.3349 260.5293)" fill="#EA4747" font-family="'MyriadPro-Semibold'" font-size="16">negative</text>
</g>
</svg>
